<?xml version="1.0"?>
<svg width="50" height="50" xmlns="http://www.w3.org/2000/svg" xmlns:svg="http://www.w3.org/2000/svg">
 <!-- Created with SVG-edit - http://svg-edit.googlecode.com/ -->
 <title>Syringe</title>
 <g>
  <title>Layer 1</title>
  <line id="svg_3" y2="42.3" x2="6.4" y1="49.4" x1="0.2" stroke="#000000" fill="none"/>
  <line id="svg_4" y2="42.3" x2="6.3" y1="36.3" x1="6.3" stroke="#000000" fill="none"/>
  <line id="svg_5" y2="42.7" x2="6.3" y1="42.7" x1="12.4" stroke="#000000" fill="none"/>
  <line id="svg_9" y2="17.4" x2="25.3" y1="36.5" x1="6.3" stroke="#000000" fill="none"/>
  <line id="svg_10" y2="22.7" x2="32" y1="42.9" x1="12.1" stroke="#000000" fill="none"/>
  <line id="svg_11" y2="23" x2="31.9" y1="17.4" x1="25.2" stroke="#000000" fill="none"/>
  <line id="svg_12" y2="37.3" x2="16.9" y1="34.4" x1="14.1" stroke="#000000" fill="none"/>
  <line id="svg_13" y2="34.5" x2="20.1" y1="31.7" x1="17.3" stroke="#000000" fill="none"/>
  <line id="svg_14" y2="31.5" x2="23" y1="28.7" x1="20.4" stroke="#000000" fill="none"/>
  <line id="svg_15" y2="28.2" x2="26.5" y1="25.8" x1="24" stroke="#000000" fill="none"/>
  <line id="svg_16" y2="8.5" x2="35.6" y1="18.1" x1="26.6" stroke="#000000" fill="none"/>
  <line id="svg_17" y2="11.5" x2="39.8" y1="21.6" x1="30.8" stroke="#000000" fill="none"/>
  <line id="svg_18" y2="14.8" x2="43.4" y1="5.5" x1="32" stroke="#000000" fill="none"/>
  <line stroke="#000000" id="svg_19" y2="12.6" x2="44.7" y1="3.3" x1="33.4" fill="none"/>
  <line id="svg_20" y2="5.7" x2="32" y1="3.6" x1="33.7" stroke-linecap="null" stroke-linejoin="null" stroke-dasharray="null" stroke-width="null" stroke="#000000" fill="none"/>
  <line id="svg_21" y2="14.1" x2="42.8" y1="12.3" x1="44.5" stroke-linecap="null" stroke-linejoin="null" stroke-dasharray="null" stroke-width="null" stroke="#000000" fill="none"/>
  <line id="svg_22" y2="10.4" x2="37.5" y1="19.9" x1="28.7" stroke-linecap="null" stroke-linejoin="null" stroke-dasharray="null" stroke-width="null" stroke="#000000" fill="none"/>
 </g>
</svg>